<?xml version="1.0" encoding="iso-8859-1"?>
<!-- Uploaded to: SVG Repo, www.svgrepo.com, Generator: SVG Repo Mixer Tools -->
<svg height="800px" width="800px" version="1.1" id="Layer_1" xmlns="http://www.w3.org/2000/svg" xmlns:xlink="http://www.w3.org/1999/xlink" 
	 viewBox="0 0 512 512" xml:space="preserve">
<path style="fill:#FFA14A;" d="M41.914,64h428.171C493.144,64,512,82.861,512,105.915v300.169C512,429.139,493.144,448,470.086,448
	H41.914C18.858,448,0,429.139,0,406.084V105.915C0,82.861,18.858,64,41.914,64L41.914,64z"/>
<path style="fill:#F2702F;" d="M512,105.915v300.169C512,429.139,493.144,448,470.086,448h-76.787V64h76.787
	C493.144,64,512,82.861,512,105.915z"/>
<path style="fill:#651100;" d="M290.304,225.675c0,39.219-31.915,71.128-71.145,71.128h-41.294c-5.533,0-10.017-4.479-10.017-10.003
	s4.484-10.003,10.017-10.003h41.294c28.182,0,51.11-22.933,51.11-51.121s-22.929-51.121-51.11-51.121H133.21V347.45
	c0,5.525-4.484,10.003-10.017,10.003s-10.017-4.479-10.017-10.003V164.552c0-5.525,4.484-10.003,10.017-10.003l95.967-0.001
	C258.389,154.548,290.304,186.456,290.304,225.675z M393.299,142.78c-5.533,0-10.017,4.479-10.017,10.003v28.862
	c0,5.525,4.484,10.003,10.017,10.003s10.017-4.479,10.017-10.003v-28.862C403.317,147.259,398.831,142.78,393.299,142.78z
	 M393.299,231.565c-5.533,0-10.017,4.479-10.017,10.003v28.862c0,5.525,4.484,10.003,10.017,10.003s10.017-4.479,10.017-10.003
	v-28.862C403.317,236.044,398.831,231.565,393.299,231.565z M393.299,320.351c-5.533,0-10.017,4.479-10.017,10.003v28.862
	c0,5.525,4.484,10.003,10.017,10.003s10.017-4.479,10.017-10.003v-28.862C403.317,324.829,398.831,320.351,393.299,320.351z
	 M393.299,409.137c-5.533,0-10.017,4.479-10.017,10.003V448h20.035v-28.86C403.317,413.615,398.831,409.137,393.299,409.137z
	 M383.282,64v28.86c0,5.525,4.484,10.003,10.017,10.003s10.017-4.479,10.017-10.003V64H383.282z"/>
</svg>